<?xml version="1.0" standalone="no"?><!DOCTYPE svg PUBLIC "-//W3C//DTD SVG 1.1//EN"
        "http://www.w3.org/Graphics/SVG/1.1/DTD/svg11.dtd">
<svg t="1733100827864" class="icon" viewBox="0 0 1024 1024" version="1.1" xmlns="http://www.w3.org/2000/svg" p-id="2363"
     xmlns:xlink="http://www.w3.org/1999/xlink" width="18" height="18">
    <path d="M386.482 798.545c-67.108-50.497-97.804-137.796-71.536-220.541 31.312-97.468 105.279-138.013 186.14-180.863 38.775-20.787 77.157-40.994 107.373-66.139 10.046-8.457 24.82-6.98 33.123 2.992 2.781 3.153 4.361 7.119 5.099 10.957l-0.011 0.522c7.115 38.605 23.346 79.089 39.685 119.283 34.133 85.181 64.812 163.738 25.865 258.237-33.032 80.277-113.208 127.111-197.066 122.511-18.272-0.778-36.541-4.403-54.096-9.576l-0.228 0.624c-16.815 46.074-69.624 70.655-116.018 53.723-7.389-2.697-10.939-10.59-8.302-17.818 2.76-7.563 10.667-11.604 18.055-8.907 31.921 11.65 68.001-5.135 79.54-36.751l0.228-0.624c-16.906-7.403-32.925-16.292-47.851-27.63z m33.759-190.666c-3.015-7.333 0.026-15.665 6.892-18.884 7.161-3.44 15.798-0.288 18.885 6.893l40.551 87.161 73.99-202.73a14.2 14.2 0 0 1 18.229-8.481c7.243 2.644 11.192 10.845 8.495 18.234l-51.32 140.616 87.161-40.552c7.015-3.13 15.363-0.083 18.871 6.887 3 6.969-0.046 15.316-6.887 18.871l-112.924 52.549-44.942 123.14c13.249 3.766 27.322 6.221 40.608 6.958 64.122 3.466 125.67-31.809 150.813-93.399 32.872-79.791 3.019-150.382-26.023-223.194-12.377-30.539-24.802-61.442-33.771-92.531-26.712 18.067-56.359 33.811-85.434 49.026-69.101 36.994-137.405 71.76-163.803 153.915-20.28 63.364 4.064 129.987 55.357 168.644 10.942 8.106 22.823 15.123 35.645 20.51l22.267-61.011-52.66-112.622z"
          fill="#555555" p-id="2364"></path>
    <path d="M915.16 445.872c-20.726-24.352-48.031-43.855-78.989-54.115-6.345-73.385-38.526-139.45-88.013-188.936-55.351-55.118-131.909-89.249-215.788-89.249-61.903 0-119.466 18.542-167.73 50.476-43.883 28.774-79.978 68.276-103.877 115.551-52.179 8.296-98.987 33.417-133.585 69.732-39.282 41.452-63.167 97.531-63.167 158.5 0 63.853 26.082 121.649 68.029 163.348h-0.494c41.946 42.413 99.495 68.001 163.843 68.001h47.303c-7.183-22.072-11.235-45.339-11.331-68.729H295.39c-44.858 0-85.815-18.048-115.057-47.564-29.763-29.255-47.811-69.965-47.811-115.057 0-43.169 17.072-82.409 44.391-111.17 27.305-29.283 65.337-48.044 107.283-50.256 13.158-0.494 25.327-8.282 30.711-21.22 18.515-42.88 49.253-78.728 87.766-104.563 36.809-24.146 81.406-38.526 129.698-38.526 65.089 0 124.355 26.549 167.249 69.21 42.441 42.674 69.265 101.926 69.265 167.043v0.247c0 16.317 11.675 30.697 28.294 33.87 26.302 4.656 49.226 18.048 65.79 37.318 15.617 19.476 25.382 43.869 25.382 70.693 0 30.739-12.197 57.796-32.181 78.028-19.503 19.49-46.822 31.7-76.791 31.947h-62.727c-0.096 23.39-4.148 46.657-11.331 68.729h74.278c48.786-0.467 92.889-20.726 125.317-52.137 31.933-32.455 52.192-77.052 52.192-126.567-0.001-43.375-16.099-83.618-41.948-114.604z"
          fill="#555555" p-id="2365"></path>
</svg>