<?xml version="1.0" standalone="no"?><!DOCTYPE svg PUBLIC "-//W3C//DTD SVG 1.1//EN"
        "http://www.w3.org/Graphics/SVG/1.1/DTD/svg11.dtd">
<svg t="1732020923253" class="icon" viewBox="0 0 1099 1024" version="1.1" xmlns="http://www.w3.org/2000/svg" p-id="2326"
     xmlns:xlink="http://www.w3.org/1999/xlink" width="18" height="18">
    <path d="M823.296 543.744 823.296 741.376 223.744 741.376 223.744 543.744 432.64 543.744 432.64 625.152 612.352 625.152 612.352 543.744 823.296 543.744 823.808 509.44 578.56 509.44 578.56 590.848 466.944 590.848 466.944 509.44 223.744 509.44 369.152 246.784 609.792 246.784 612.352 212.48 346.624 212.48 189.44 500.736 189.44 775.168 857.6 775.168 857.6 509.44 709.632 212.48 612.352 212.48 609.792 246.784 688.128 246.784 823.808 509.44Z"
          p-id="2327" fill="#555555"></path>
    <path d="M388.608 315.392l276.992 0 0 34.304-276.992 0 0-34.304Z" p-id="2328" fill="#555555"></path>
    <path d="M360.96 398.336l332.288 0 0 34.304-332.288 0 0-34.304Z" p-id="2329" fill="#555555"></path>
</svg>