<?xml version="1.0" standalone="no"?><!DOCTYPE svg PUBLIC "-//W3C//DTD SVG 1.1//EN"
        "http://www.w3.org/Graphics/SVG/1.1/DTD/svg11.dtd">
<svg t="1734933708754" class="icon" viewBox="0 0 1024 1024" version="1.1" xmlns="http://www.w3.org/2000/svg" p-id="2364"
     width="32" height="32" xmlns:xlink="http://www.w3.org/1999/xlink">
    <path d="M512 64C264.576 64 64 264.576 64 512c0 247.424 200.576 448 448 448 247.424 0 448-200.576 448-448C960 264.576 759.424 64 512 64L512 64zM792.96 364.16l-360.192 360.192c-2.944 2.944-6.656 4.608-10.496 5.12-6.656 1.984-14.144 0.384-19.392-4.864L216.96 538.688c-7.616-7.616-7.616-19.968 0-27.52l23.104-23.104c7.616-7.616 19.968-7.616 27.52 0L417.664 638.08l324.608-324.608c7.36-7.36 19.584-7.04 27.328 0.704l22.656 22.656C800 344.576 800.32 356.8 792.96 364.16L792.96 364.16z"
          p-id="2365" fill="#67C23A"></path>
</svg>