<?xml version="1.0" standalone="no"?><!DOCTYPE svg PUBLIC "-//W3C//DTD SVG 1.1//EN"
        "http://www.w3.org/Graphics/SVG/1.1/DTD/svg11.dtd">
<svg t="1734938877414" class="icon" viewBox="0 0 1257 1024" version="1.1" xmlns="http://www.w3.org/2000/svg"
     p-id="49863" xmlns:xlink="http://www.w3.org/1999/xlink" width="39.28125" height="32">
    <path d="M1231.590841 850.969529L738.324872 71.464506c-60.329929-95.30012-158.932319-95.30012-219.262248 0L25.754318 850.969529C-34.575612 946.184975 14.789088 1024 135.491284 1024h986.447265c120.659859 0 169.939885-77.815025 109.652292-173.030471zM560.933711 292.589573a92.336544 92.336544 0 0 1 67.738868-26.248811 93.140943 93.140943 0 0 1 67.738868 25.86778 86.959772 86.959772 0 0 1 26.460496 64.817629c0 22.353826-36.790673 186.578245-49.068343 306.09501h-88.610906c-10.753545-119.516765-50.804151-283.65651-50.804151-306.09501a87.044445 87.044445 0 0 1 26.545168-64.436598z m134.249969 568.202092a101.608302 101.608302 0 0 1-133.022202 0 77.433993 77.433993 0 0 1-27.815272-60.033572 79.339149 79.339149 0 0 1 27.815272-60.58395 99.66081 99.66081 0 0 1 133.022202 0 79.381486 79.381486 0 0 1 27.815273 60.58395 77.518667 77.518667 0 0 1-27.772936 60.033572z"
          fill="#FF0000" p-id="49864"></path>
</svg>