<?xml version="1.0" standalone="no"?><!DOCTYPE svg PUBLIC "-//W3C//DTD SVG 1.1//EN" "http://www.w3.org/Graphics/SVG/1.1/DTD/svg11.dtd"><svg t="1732174636638" class="icon" viewBox="0 0 1024 1024" version="1.1" xmlns="http://www.w3.org/2000/svg" p-id="12858" xmlns:xlink="http://www.w3.org/1999/xlink" width="256" height="256"><path d="M828.086548 115.71778H428.553151c-63.096896 0-114.152399 50.453434-114.152398 112.707432v281.768579c0 62.253998 51.055503 112.707432 114.152398 112.707432h165.569144l191.096896 108.854186c0.60207 0.240828 1.204139 0.481656 1.806209 0.60207 1.685795 0.722484 3.492004 1.324553 5.298212 1.685795 1.806209 0.60207 3.612418 0.963311 5.539041 1.204139 0.60207 0.120414 1.204139 0.361242 1.685795 0.361242 1.204139-0.120414 2.287865-0.361242 3.37159-0.842898 1.926623-0.240828 3.853246-0.60207 5.779868-1.083725 1.685795-0.60207 3.37159-1.444967 4.936971-2.408278 1.565381-0.842897 3.010348-1.806209 4.455315-3.010349 1.444967-1.324553 2.649106-2.76952 3.853245-4.334901 0.842897-0.842897 1.685795-1.685795 2.408279-2.649106 0.120414-0.361242 0-0.722484 0.120414-0.963311 2.287865-3.973659 3.612418-8.549389 3.732831-13.125118v-84.41016c63.096896 0 114.152399-50.453434 114.152399-112.707432v-281.768579c0-62.133584-51.175917-112.587018-114.272812-112.587018M899.492004 514.76952c0 32.270931-26.491063 64.541863-59.364064 64.541863h-29.501411c-16.496707 0-33.956726 6.502352-33.956727 22.758231v66.468486l-160.632173-85.253058c-4.094073-2.287865-13.486359-3.853246-13.486359-3.853245H421.087488c-32.752587 0-63.939793-34.920038-63.939793-67.311383V219.15334c0-32.270931 30.585136-65.264346 63.337724-65.264347h415.30762c32.752587 0 63.698965 35.040452 63.698965 67.311383v293.569144z m-296.459078 237.215428H421.44873s-9.392286 1.565381-13.486359 3.853246l-160.51176 85.132643v-66.468485c0-16.135466-17.460019-22.637817-33.956726-22.637818h-29.621825c-32.752587 0-59.364064-32.150517-59.364064-64.541862V393.753528c0-32.391345 30.825964-67.311383 63.578552-67.311383h72.489181v-38.171214h-64.903104c-62.976482 0-114.152399 50.453434-114.152399 112.707432v281.76858c0 62.253998 51.055503 112.707432 114.152399 112.707431v84.530574c0.120414 4.575729 1.324553 9.151458 3.732831 13.125118 0.120414 0.240828 0 0.722484 0.120414 1.083725 0.60207 1.083725 1.685795 1.685795 2.287865 2.649106 1.083725 1.565381 2.408278 3.010348 3.973659 4.214488 1.444967 1.083725 2.889934 2.167451 4.455315 3.010348 1.565381 0.963311 3.130762 1.685795 4.816557 2.287864 1.926623 0.60207 3.853246 1.083725 5.779869 1.20414 1.204139 0.120414 2.287865 0.842897 3.492003 0.842897 0.481656 0 1.083725-0.361242 1.685795-0.361242 1.926623-0.240828 3.732832-0.60207 5.539041-1.083725 1.806209-0.481656 3.612418-1.083725 5.298212-1.806209 0.481656-0.240828 1.204139-0.240828 1.685795-0.602069L429.877705 795.454374h165.569144c55.751646 0 101.990593-39.375353 111.984948-91.514581h-44.914393c-8.91063 25.407338-33.354657 47.924741-59.484478 48.045155" fill="#FF0000" p-id="12859"></path><path d="M556.914393 299.469426H526.208843c-8.91063-52.380056 26.611477-96.451552 84.289746-105.241768 66.107244-10.11477 119.08937 36.244591 111.382879 98.739416-1.565381 12.041392-7.586077 24.203198-13.727188 34.920038-5.057385 8.91063-12.88429 16.496707-20.470367 23.601129-26.370649 24.444026-52.741298 48.526811-46.479774 90.55127h-34.197554c-3.251176-30.585136 3.37159-58.039511 22.878645-81.279398 13.365945-16.015052 28.5381-30.464722 42.626529-45.877705 28.297272-30.946378 14.690499-76.462841-25.888993-87.661336-45.877705-12.523048-79.954845 9.031044-87.78175 55.390405-0.842897 5.057385-1.204139 10.235183-1.926623 16.857949zM604.598307 520.549389v-39.495767h34.679209c12.28222 36.365005 6.020696 43.951082-34.679209 39.495767z" fill="#FF0000" p-id="12860"></path></svg>