<?xml version="1.0" standalone="no"?><!DOCTYPE svg PUBLIC "-//W3C//DTD SVG 1.1//EN" "http://www.w3.org/Graphics/SVG/1.1/DTD/svg11.dtd"><svg t="1732518493712" class="icon" viewBox="0 0 1024 1024" version="1.1" xmlns="http://www.w3.org/2000/svg" p-id="8849" xmlns:xlink="http://www.w3.org/1999/xlink" width="256" height="256"><path d="M90.112 301.568h533.504v20.48H90.112z" p-id="8850" fill="#555555"></path><path d="M89.49248 674.41664l0.7168-366.592 20.48 0.04096-0.7168 366.592z" p-id="8851" fill="#555555"></path><path d="M99.84 653.824h523.776v20.48H99.84zM603.136 311.808h20.48v227.84h-20.48zM603.136 574.976h20.48v78.848h-20.48z" p-id="8852" fill="#555555"></path><path d="M582.656 534.016h59.904v10.24h-59.904z" p-id="8853" fill="#555555"></path><path d="M582.57408 575.60576l0.11776-40.96 10.24 0.03072-0.11776 40.96zM632.66816 536.12544l10.24-0.08704 0.37376 45.056-10.24 0.08704z" p-id="8854" fill="#555555"></path><path d="M582.64064 573.02016l60.416-0.1792 0.03072 10.24-60.416 0.1792zM547.84 553.472h173.056v10.24H547.84zM643.072 501.76v-3.584l30.72-16.384v5.12l-24.576 12.8 24.576 12.8v5.12z" p-id="8855" fill="#555555"></path><path d="M644.096 501.248v-2.048l28.672-15.36v2.56l-25.6 13.312 25.6 13.312v3.072l-28.672-14.848zM679.936 501.76v-3.584l31.232-16.384v5.12l-25.088 12.8 25.088 12.8v5.12z" p-id="8856" fill="#555555"></path><path d="M680.96 501.248v-2.048l28.672-15.36v2.56l-25.6 13.312 25.6 13.312v3.072l-28.672-14.848zM714.24 531.968v-2.56h1.024c3.072 0 3.584-0.512 3.584-4.096v-27.648c0-3.584 0-3.584-3.584-4.096h-1.024v-2.56h1.024c2.048-0.512 5.12-1.536 7.168-2.56l1.536-1.024v4.608l6.144-2.56c1.024-0.512 2.048-0.512 3.072-0.512 7.68 0 11.776 6.144 11.776 11.776 0 9.216-7.168 15.872-17.408 17.408-1.024 0-2.048-0.512-3.072-0.512v7.168c0 4.096 0.512 4.608 5.12 4.608h1.024v2.56h-16.384z m9.728-20.992c1.536 1.536 3.584 2.048 6.144 2.048 4.608 0 9.216-3.072 9.216-10.24 0-5.632-3.072-9.216-8.704-9.216-2.048 0-4.608 1.024-6.656 2.56v14.848z" p-id="8857" fill="#555555"></path><path d="M715.264 530.432c3.584 0 4.608-1.024 4.608-5.12v-27.648c0-4.096 0-4.096-4.096-5.12V491.52c2.048-0.512 5.12-1.536 7.168-2.56v4.608l7.168-3.072c1.024-0.512 1.536-0.512 2.56-0.512 7.168 0 10.752 5.12 10.752 10.752 0 9.216-7.68 15.36-16.896 16.384-1.536 0-3.584-1.024-4.096-1.536v9.216c0 4.608 1.024 5.632 6.144 5.632v0.512h-13.824v-0.512z m7.68-19.456c1.536 1.536 3.584 2.56 7.168 2.56 5.12 0 10.24-3.584 10.24-11.264 0-5.632-3.072-10.24-9.728-10.24-2.56 0-5.632 1.536-7.68 3.072v15.872zM747.008 517.12v-3.072h1.024c3.072 0 3.584-0.512 3.584-4.096v-12.288c0-4.096 0-4.096-3.072-4.096h-1.024V491.52h1.024c3.072-0.512 5.12-1.536 6.656-2.56l1.536-1.024v5.632c2.048-2.56 4.608-4.608 6.656-4.608 2.56 0 4.096 2.048 4.096 3.584 0 1.536-1.536 3.072-3.072 3.072-1.024 0-1.024-0.512-1.536-1.024-0.512-0.512-1.024-0.512-1.536-0.512-1.024 0-3.072 2.048-4.608 6.656v9.728c0 3.072 0 3.584 4.608 3.584h1.024v3.072h-15.36z" p-id="8858" fill="#555555"></path><path d="M748.032 515.072c3.584 0 4.608-1.024 4.608-5.12v-12.288c0-4.608-0.512-4.608-4.096-5.12v-0.512c2.56-0.512 5.12-1.024 7.168-2.56v7.68c1.536-3.072 4.608-7.168 7.68-7.168 2.048 0 3.072 1.536 3.072 2.56s-1.024 2.048-2.048 2.048c0 0-0.512 0-0.512-0.512-1.024-1.024-1.536-1.536-2.56-1.536-1.536 0-4.096 2.56-5.632 7.168v10.24c0 3.584 0.512 4.608 5.632 4.608v1.024h-12.8v-0.512zM783.36 517.632c-9.216 0-14.848-7.168-14.848-13.824 0-10.24 8.704-14.848 14.336-14.848 8.192 0 14.848 6.144 14.848 13.824 0 10.24-8.704 14.848-14.336 14.848z m-1.024-25.088c-5.12 0-8.192 3.584-8.192 9.728 0 7.68 4.096 12.288 9.728 12.288 6.656 0 7.68-5.632 7.68-10.752 0.512-5.632-3.072-11.264-9.216-11.264z" p-id="8859" fill="#555555"></path><path d="M796.672 502.784c0 9.216-7.68 13.824-13.312 13.824-8.192 0-13.824-6.144-13.824-12.8 0-9.728 8.192-13.824 13.312-13.824 7.68 0 13.824 5.632 13.824 12.8z m-23.04-1.024c0 7.68 4.096 13.312 10.752 13.312 5.12 0 8.704-3.072 8.704-11.776 0-6.144-3.584-12.288-10.24-12.288-6.144 0.512-9.216 4.608-9.216 10.752zM815.104 517.12v-2.56h1.024c1.536 0 2.048-0.512 2.048-0.512s-0.512-0.512-0.512-1.024l-4.608-6.656-0.512 1.024-3.072 4.608c-0.512 1.024-0.512 1.536-0.512 1.536s0.512 0.512 2.56 0.512h1.024v2.56H798.72v-2.56h1.024c4.096-0.512 4.096-0.512 6.144-3.072l0.512-0.512c1.024-1.536 2.048-2.56 3.072-4.096 0.512-1.024 1.536-2.048 2.048-3.072l-5.12-7.168c-2.048-2.56-2.56-3.584-6.144-3.584h-1.024v-2.56h13.312v2.56h-1.024c-1.536 0-2.048 0.512-2.048 0.512s0 0.512 0.512 1.024l3.584 5.12c0-0.512 0.512-0.512 0.512-1.024 0.512-1.024 1.536-2.56 2.56-4.096 0.512-0.512 0.512-1.024 0.512-1.024s-0.512 0-2.048-0.512h-1.024v-2.56h13.824v3.072h-1.024c-4.096 0.512-5.12 1.024-7.168 4.096l-0.512 1.024c-1.024 1.024-2.048 2.56-3.584 4.608l6.656 9.216c2.048 2.56 2.048 2.56 6.144 3.584h1.024v2.56h-14.336z" p-id="8860" fill="#555555"></path><path d="M800.256 490.496h11.264v1.024c-2.048 0.512-3.072 0.512-3.072 1.536 0 0.512 0.512 1.024 1.024 1.536l4.608 6.144c1.024-1.536 2.56-3.584 4.096-6.144 0.512-0.512 0.512-1.024 0.512-1.536 0-1.024-1.024-1.024-2.56-1.536v-1.024h11.776v1.024c-4.096 0.512-5.632 1.024-8.192 4.096-1.024 1.536-2.56 3.072-4.608 6.144l6.656 9.216c2.048 3.072 2.56 3.584 7.168 4.608v1.024h-12.288v-1.024c2.048 0 3.072-0.512 3.072-1.536 0-0.512 0-1.024-0.512-1.536l-5.632-7.68c-1.536 2.56-3.072 4.608-4.608 7.168-0.512 1.024-1.024 1.536-1.024 2.048 0 1.024 1.024 1.536 3.072 1.536v1.024h-11.776v-1.024c4.608-0.512 4.608-1.024 7.168-4.096 2.048-2.56 3.584-5.12 5.632-7.68l-5.632-7.68c-2.048-2.56-3.072-3.584-6.656-4.096v-1.536z" p-id="8861" fill="#555555"></path><path d="M834.048 532.48c-2.048 0-3.584-1.536-3.584-3.584 0-1.536 1.024-2.048 2.048-2.56 4.096-3.072 7.168-10.24 7.168-11.264 0-1.024-3.584-10.24-7.168-18.944-1.536-3.072-1.536-3.584-4.608-4.096h-1.024v-2.56h13.312v2.56h-1.024c-2.048 0.512-2.56 0.512-2.56 1.024 0 0 0 0.512 0.512 1.024l5.632 14.336c2.56-5.632 5.632-12.8 5.632-14.848 0-0.512 0-1.024-2.56-1.536h-1.024v-2.56h13.312v2.56h-1.024c-2.56 0.512-3.072 0.512-4.608 3.584l-0.512 0.512c-1.024 2.048-2.56 4.608-4.608 9.728-1.024 2.56-2.56 5.632-4.096 9.216-4.608 9.216-6.144 12.8-7.168 15.872 0.512 1.024-0.512 1.536-2.048 1.536z" p-id="8862" fill="#555555"></path><path d="M827.904 490.496h11.264v1.024c-2.048 0.512-3.072 1.024-3.072 2.048 0 0.512 0 1.024 0.512 1.536l6.656 16.384c1.024-2.048 6.656-14.336 6.656-17.408 0-1.536-1.024-2.048-3.584-2.56v-1.024h11.264v1.024c-3.584 0.512-3.584 1.024-5.632 4.608-2.048 3.072-4.096 8.192-9.216 18.432-4.608 9.216-6.144 12.8-7.168 15.872-0.512 1.024-1.024 1.024-1.536 1.024-1.536 0-2.56-1.024-2.56-2.56 0-1.024 0.512-1.536 1.536-2.048 4.608-3.072 7.68-11.264 7.68-11.776 0-0.512-3.584-10.752-7.168-19.456-1.536-3.072-1.536-4.096-5.632-4.608v-0.512zM858.624 512.512l25.088-12.8-25.088-12.8v-5.12l31.232 16.384v3.584l-31.232 15.872z" p-id="8863" fill="#555555"></path><path d="M888.832 498.688v2.048l-28.672 15.36v-3.072l25.6-13.312-25.6-13.312v-3.072l28.672 15.36zM896 512.512l24.576-12.8-24.576-12.8v-5.12l30.72 16.384v3.584l-30.72 15.872z" p-id="8864" fill="#555555"></path><path d="M925.696 498.688v2.048l-28.672 15.36v-3.072l25.6-13.312-25.6-13.312v-3.072l28.672 15.36z" p-id="8865" fill="#555555"></path></svg>