<?xml version="1.0" standalone="no"?><!DOCTYPE svg PUBLIC "-//W3C//DTD SVG 1.1//EN" "http://www.w3.org/Graphics/SVG/1.1/DTD/svg11.dtd"><svg t="1732176249106" class="icon" viewBox="0 0 1024 1024" version="1.1" xmlns="http://www.w3.org/2000/svg" p-id="7996" xmlns:xlink="http://www.w3.org/1999/xlink" width="256" height="256"><path d="M540.444444 56.888889H113.777778v910.222222h796.444444V56.888889h-84.906666v256.369778a28.444444 28.444444 0 0 1-45.511112 22.755555l-97.194666-73.045333-96.568889 72.988444A28.444444 28.444444 0 0 1 540.444444 313.258667V57.514667 56.888889z m56.888889 0V256.113778l68.067556-51.456a28.444444 28.444444 0 0 1 34.247111-0.028445l68.778667 51.683556V57.457778 56.888889H597.333333zM113.777778 0h796.444444a56.888889 56.888889 0 0 1 56.888889 56.888889v910.222222a56.888889 56.888889 0 0 1-56.888889 56.888889H113.777778a56.888889 56.888889 0 0 1-56.888889-56.888889V56.888889a56.888889 56.888889 0 0 1 56.888889-56.888889z" fill="#555555" p-id="7997"></path><path d="M255.744 599.608889a28.444444 28.444444 0 1 1 0-56.888889h200.504889a28.444444 28.444444 0 0 1 0 56.888889H255.715556z m0 170.666667a28.444444 28.444444 0 1 1 0-56.888889H712.248889a28.444444 28.444444 0 1 1 0 56.888889H255.715556z" fill="#555555" p-id="7998"></path></svg>