<?xml version="1.0" standalone="no"?><!DOCTYPE svg PUBLIC "-//W3C//DTD SVG 1.1//EN" "http://www.w3.org/Graphics/SVG/1.1/DTD/svg11.dtd"><svg t="1732518625853" class="icon" viewBox="0 0 1024 1024" version="1.1" xmlns="http://www.w3.org/2000/svg" p-id="16960" xmlns:xlink="http://www.w3.org/1999/xlink" width="256" height="256"><path d="M393.1 690.4v89.2c0 82.1-66.5 148.6-148.6 148.6S95.8 861.6 95.8 779.5s66.5-148.6 148.6-148.6h89.2V393.1h-89.2c-82.1 0-148.6-66.5-148.6-148.6S162.4 95.8 244.5 95.8s148.6 66.5 148.6 148.6v89.2h237.8v-89.2c0-82.1 66.5-148.6 148.6-148.6s148.6 66.5 148.6 148.6S861.6 393 779.5 393h-89.2v237.8h89.2c82.1 0 148.6 66.5 148.6 148.6S861.6 928 779.5 928s-148.6-66.5-148.6-148.6v-89.2H393.1z m-59.5 0h-89.2c-49.3 0-89.2 39.9-89.2 89.2 0 49.3 39.9 89.2 89.2 89.2s89.2-39.9 89.2-89.2v-89.2z m356.8 0v89.2c0 49.3 39.9 89.2 89.2 89.2 49.3 0 89.2-39.9 89.2-89.2 0-49.3-39.9-89.2-89.2-89.2h-89.2z m0-356.8h89.2c49.3 0 89.2-39.9 89.2-89.2 0-49.3-39.9-89.2-89.2-89.2-49.3 0-89.2 39.9-89.2 89.2v89.2z m-356.8 0v-89.2c0-49.3-39.9-89.2-89.2-89.2s-89.2 39.9-89.2 89.2c0 49.3 39.9 89.2 89.2 89.2h89.2z m59.5 59.5v237.8h237.8V393.1H393.1z m0 0" p-id="16961" fill="#555555"></path></svg>