<?xml version="1.0" standalone="no"?><!DOCTYPE svg PUBLIC "-//W3C//DTD SVG 1.1//EN" "http://www.w3.org/Graphics/SVG/1.1/DTD/svg11.dtd"><svg t="1732518598464" class="icon" viewBox="0 0 1024 1024" version="1.1" xmlns="http://www.w3.org/2000/svg" p-id="15856" xmlns:xlink="http://www.w3.org/1999/xlink" width="256" height="256"><path d="M152.768 985.984 152.768 49.856l434.56 0 66.816 0 234.048 267.392 0 66.816 0 601.92L152.768 985.984 152.768 985.984zM654.144 193.088l0 124.16 108.736 0L654.144 193.088 654.144 193.088zM821.312 384.064l-167.168 0L587.328 384.064 587.328 317.312 587.328 116.736 219.584 116.736 219.584 919.04l601.728 0L821.312 384.064 821.312 384.064zM386.688 517.888 319.808 517.888 319.808 450.944l66.816 0L386.624 517.888 386.688 517.888zM386.688 651.584 319.808 651.584 319.808 584.704l66.816 0L386.624 651.584 386.688 651.584zM386.688 785.344 319.808 785.344l0-66.88 66.816 0L386.624 785.344 386.688 785.344zM721.024 517.888 453.632 517.888 453.632 450.944l267.392 0L721.024 517.888 721.024 517.888zM654.144 651.584 453.632 651.584 453.632 584.704l200.512 0L654.144 651.584 654.144 651.584zM620.672 785.344l-167.04 0 0-66.88 167.04 0L620.672 785.344 620.672 785.344z" fill="#555555" p-id="15857"></path></svg>