<?xml version="1.0" standalone="no"?><!DOCTYPE svg PUBLIC "-//W3C//DTD SVG 1.1//EN" "http://www.w3.org/Graphics/SVG/1.1/DTD/svg11.dtd"><svg t="1732518547872" class="icon" viewBox="0 0 1024 1024" version="1.1" xmlns="http://www.w3.org/2000/svg" p-id="12305" xmlns:xlink="http://www.w3.org/1999/xlink" width="256" height="256"><path d="M187.97568 565.98528c14.88896 73.1648 51.58912 138.98752 106.09664 190.31552a32.68608 32.68608 0 0 0 27.1872 8.56064 32.7424 32.7424 0 0 0 23.60832-16.00512l42.56768-73.72288a32.768 32.768 0 0 0-4.096-38.36928 214.13376 214.13376 0 0 1-47.39072-86.06208 32.75264 32.75264 0 0 0-31.55456-24.00256H220.05248a32.68096 32.68096 0 0 0-25.34912 12.03712 32.65024 32.65024 0 0 0-6.72768 27.24864zM621.11744 717.53728a32.70656 32.70656 0 0 0-35.3536-15.64672 210.88256 210.88256 0 0 1-106.46016-4.22912 32.78336 32.78336 0 0 0-37.90848 14.9504l-41.78944 72.4224a32.74752 32.74752 0 0 0-2.42688 27.48416 32.62464 32.62464 0 0 0 19.44576 19.57376c39.58784 14.62272 81.40288 22.0416 124.2368 22.0416 35.41504 0 70.37952-5.11488 103.89504-15.22176a32.82944 32.82944 0 0 0 20.992-19.28192 32.73216 32.73216 0 0 0-2.0992-28.4416l-42.53184-73.6512zM771.584 217.3696a32.70144 32.70144 0 0 0-20.96128-7.60832c-1.89952 0-3.83488 0.19968-5.7344 0.52736a32.73728 32.73728 0 0 0-22.59968 15.872l-41.8816 72.47872a32.80384 32.80384 0 0 0 6.00064 40.30976 210.65216 210.65216 0 0 1 59.36128 98.19136 32.768 32.768 0 0 0 31.58528 24.07424h84.352a32.75776 32.75776 0 0 0 25.3184-12.00128 32.62464 32.62464 0 0 0 6.75328-27.22304c-16.09728-79.7696-59.48928-152.44288-122.19392-204.6208zM665.74848 168.27392a32.76288 32.76288 0 0 0-20.992-19.28704 359.80288 359.80288 0 0 0-103.89504-15.25248c-42.83392 0-84.64896 7.41376-124.2368 22.03648a32.78336 32.78336 0 0 0-17.01888 47.104l41.78944 72.41216a32.78336 32.78336 0 0 0 37.90848 14.9504 210.7392 210.7392 0 0 1 61.56288-9.14944c14.98624 0 30.1056 1.6384 44.89728 4.8896a32.74752 32.74752 0 0 0 35.3536-15.61088l42.53696-73.66144a32.70656 32.70656 0 0 0 2.09408-28.43136zM861.70624 526.6944h-84.352a32.73216 32.73216 0 0 0-31.58528 24.06912 210.74944 210.74944 0 0 1-59.36128 98.19648 32.73728 32.73728 0 0 0-6.00064 40.2688l41.8816 72.50944a32.70144 32.70144 0 0 0 22.59968 15.87712c1.89952 0.32768 3.83488 0.49152 5.7344 0.49152a32.67584 32.67584 0 0 0 20.96128-7.57248c62.70464-52.21376 106.09664-124.85632 122.19392-204.61568a32.6144 32.6144 0 0 0-6.75328-27.22304 32.6656 32.6656 0 0 0-25.3184-12.00128zM194.69824 449.17248a32.69632 32.69632 0 0 0 25.34912 12.03712h84.352a32.75776 32.75776 0 0 0 31.55456-24.00256 214.15424 214.15424 0 0 1 47.39072-86.0928 32.7168 32.7168 0 0 0 4.096-38.33856L344.87296 239.0528a32.8704 32.8704 0 0 0-23.60832-16.03584 32.70656 32.70656 0 0 0-4.75648-0.32768c-8.26368 0-16.3328 3.1488-22.43072 8.91904C239.5648 282.9312 202.86464 348.7488 187.97568 421.91872a32.68608 32.68608 0 0 0 6.72256 27.25376z" fill="#555555" p-id="12306"></path></svg>