<?xml version="1.0" standalone="no"?><!DOCTYPE svg PUBLIC "-//W3C//DTD SVG 1.1//EN" "http://www.w3.org/Graphics/SVG/1.1/DTD/svg11.dtd"><svg t="1732174611377" class="icon" viewBox="0 0 1152 1024" version="1.1" xmlns="http://www.w3.org/2000/svg" p-id="9279" xmlns:xlink="http://www.w3.org/1999/xlink" width="288" height="256"><path d="M1067.3408 812.7488V145.7152c17.664 0 34.688 6.784 47.104 19.0464 12.4672 12.288 19.5584 28.8256 19.5584 46.0288v661.8624c0 51.6608-33.1264 135.3472-133.376 126.9248-70.5792-5.8112-75.1616-8.32-134.7584-7.3216-58.2912 0.9984-139.9808-0.9984-212.992 15.744 40.9088-33.3312 100.736-56.9088 140.3648-65.0752 39.4752-8.2944 88.9088-11.904 146.944-14.0032 73.6768-2.5856 127.1552-56.6528 127.1552-116.1216v-0.0512z m-1000.4992 0c0 53.6832 40.6016 113.0752 128.5632 116.1728 58.112 2.0992 94.464 8.2944 145.664 14.0032 51.2 5.6064 100.48 31.8208 141.3376 65.0752-73.0112-16.768-148.608-15.744-214.144-15.744-51.5584 0-60.544 7.3216-134.784 7.3216-87.4752 0-133.4784-77.2352-133.4784-126.976V210.6368c0-35.9424 29.8496-65.0496 66.7136-65.0496v667.1616h0.128z" fill="#98CCFF" p-id="9280"></path><path d="M907.3408 0.0512c10.88 0 21.8112 0.4608 32.7424 1.4592 34.304 3.072 60.5696 31.232 60.4672 64.8448v731.0336c0 35.072-28.5184 63.6928-64.256 64.9472-64.6912 2.3552-119.552 10.752-164.4032 25.4208-58.7776 19.2-116.0704 54.0672-171.52 104.3712V174.6944c40.96-68.6848 98.2528-117.888 171.52-147.7632a359.4752 359.4752 0 0 1 135.3984-26.88h0.0512zM226.8928 0c46.08 0 91.136 9.0368 135.3728 26.9312 73.2672 29.7472 130.56 79.104 171.52 147.7632V992.256c-55.424-50.432-112.7168-85.2736-171.52-104.3712-44.8256-14.4896-99.584-23.04-164.352-25.2928-35.84-1.2544-64.256-30.0288-64.128-65.0752V66.3808c0-33.664 26.1376-61.6448 60.4416-64.768C205.0304 0.512 215.9616 0 226.8928 0z" fill="#0381FE" p-id="9281"></path></svg>