<?xml version="1.0" standalone="no"?><!DOCTYPE svg PUBLIC "-//W3C//DTD SVG 1.1//EN" "http://www.w3.org/Graphics/SVG/1.1/DTD/svg11.dtd"><svg t="1732174461009" class="icon" viewBox="0 0 1024 1024" version="1.1" xmlns="http://www.w3.org/2000/svg" p-id="2764" xmlns:xlink="http://www.w3.org/1999/xlink" width="256" height="256"><path d="M0 0m256 0l512 0q256 0 256 256l0 512q0 256-256 256l-512 0q-256 0-256-256l0-512q0-256 256-256Z" fill="#008DF9" p-id="2765"></path><path d="M554.7008 727.1424h48.0512l15.8208 54.1184 86.1952-54.1184h101.632V280.832h-251.6992v446.336z m51.1488-397.8752h149.4016v349.44h-57.3184l-57.2416 35.9168-10.4192-35.84-24.4224-0.0768v-349.44z m-93.6448 155.776h-107.3664c3.584-55.6032 4.5312-105.856 4.5312-150.7328h104.96s4.0448-46.2848-17.5872-45.7472H315.136c7.168-26.9312 16.128-54.7072 26.9056-83.456 0 0-49.408 0-66.2016 44.288-6.9632 18.2272-27.136 88.4736-62.976 160.256 12.0576-1.3312 52.0448-2.432 75.5712-45.568 4.352-12.0832 5.1456-13.6704 10.5472-29.824h59.2128c0 21.5552-2.4576 137.216-3.456 150.6816H247.552c-24.1152 0-31.9488 48.4608-31.9488 48.4608h134.5536C341.1456 635.6992 292.6848 721.92 204.8 790.0672c42.0352 12.032 83.9424-1.8944 104.6272-20.3008 0 0 47.1808-42.88 73.0368-142.08l110.6944 133.2224s16.256-55.1424-2.5344-82.0224c-15.5648-18.3296-57.5744-67.84-75.4688-85.7856l-30.0288 23.808c8.96-28.672 14.336-56.5248 16.1536-83.456h126.4896s-0.1792-48.4352-15.5648-48.4352z" fill="#FFFFFF" p-id="2766"></path></svg>