<?xml version="1.0" standalone="no"?><!DOCTYPE svg PUBLIC "-//W3C//DTD SVG 1.1//EN" "http://www.w3.org/Graphics/SVG/1.1/DTD/svg11.dtd"><svg t="1732174591361" class="icon" viewBox="0 0 1024 1024" version="1.1" xmlns="http://www.w3.org/2000/svg" p-id="6583" xmlns:xlink="http://www.w3.org/1999/xlink" width="256" height="256"><path d="M0 0m227.555556 0l568.888888 0q227.555556 0 227.555556 227.555556l0 568.888888q0 227.555556-227.555556 227.555556l-568.888888 0q-227.555556 0-227.555556-227.555556l0-568.888888q0-227.555556 227.555556-227.555556Z" fill="#FFFFFF" p-id="6584"></path><path d="M203.131259 792.310519a10.088296 10.088296 0 0 1 4.020148-10.846815 326.807704 326.807704 0 0 0 101.944889-123.941926q4.096-8.267852 8.57126-16.687408a394.05037 394.05037 0 0 0 27.45837-102.665481H210.299259l1.099852-7.585185a92.577185 92.577185 0 0 1 25.106963-52.565334l1.706667-1.251555h113.512296c0.227556-25.448296-1.327407-99.934815-2.313481-139.264h-45.511112a95.156148 95.156148 0 0 1-56.395851 68.266666l-1.744593 0.796445a57.571556 57.571556 0 0 1-21.731556 5.347555 12.250074 12.250074 0 0 1-10.733037-4.475259 9.519407 9.519407 0 0 1-1.024-8.988444c0.682667-2.085926 2.199704-5.12 4.740741-10.126222a527.435852 527.435852 0 0 0 45.018074-117.570371c14.336-56.813037 51.844741-76.913778 79.568593-76.913778a10.164148 10.164148 0 0 1 1.441185 0l10.467556 0.644741-5.157926 9.102222a331.851852 331.851852 0 0 0-23.817482 75.586371h177.189926c11.643259 0 15.17037 16.118519 16.990815 28.254815a225.052444 225.052444 0 0 1 1.85837 23.400296v6.637037h-105.472c-0.796444 25.637926-2.920296 87.22963-5.271703 139.264h106.951111l1.972148 2.427259a88.443259 88.443259 0 0 1 15.587555 52.375704v6.561185h-127.924148a394.05037 394.05037 0 0 1-10.012444 56.888889l17.597629-13.236148 87.22963 99.214222 0.379259 1.441185a129.592889 129.592889 0 0 1-4.020148 77.444741l-4.096 9.822815-110.250667-128.948148a722.981926 722.981926 0 0 1-35.309037 87.87437 119.011556 119.011556 0 0 1-109.074963 70.693926 177.114074 177.114074 0 0 1-15.435851 0.758518c-9.329778 0-17.976889-0.910222-20.290371-7.736888z m393.178074-60.681482h-48.469333V269.691259h260.740741v462.127408h-106.192593l-85.788444 57.457777z m13.956741-61.288296h14.411852l14.298074 40.542815 60.567704-40.391112h48.203852v-337.54074H610.266074z" fill="#2A7EFB" p-id="6585"></path></svg>