<?xml version="1.0" standalone="no"?><!DOCTYPE svg PUBLIC "-//W3C//DTD SVG 1.1//EN" "http://www.w3.org/Graphics/SVG/1.1/DTD/svg11.dtd"><svg t="1732518468006" class="icon" viewBox="0 0 1036 1024" version="1.1" xmlns="http://www.w3.org/2000/svg" p-id="5840" xmlns:xlink="http://www.w3.org/1999/xlink" width="259" height="256"><path d="M895.096761 346.584407a136.310693 136.310693 0 0 0-36.64517 5.134992l-99.432114-125.573891A46.681744 46.681744 0 0 0 705.102062 211.207349l-301.564066 121.139126-23.340872-23.340872 124.873665-124.640256a70.022616 70.022616 0 0 0-38.27903-118.805039L82.601006 1.139501A70.022616 70.022616 0 0 0 1.141363 82.599145l64.187398 383.723936a70.022616 70.022616 0 0 0 70.022616 58.818997 70.022616 70.022616 0 0 0 49.482648-20.539967L313.675639 374.593454l45.5147 46.681744a46.681744 46.681744 0 0 0 33.144038 13.537705 49.24924 49.24924 0 0 0 17.272246-3.267722l297.829527-119.271856 74.223973 93.363488a138.64478 138.64478 0 0 0-12.83748 141.912502l-210.067848 210.067848a140.045232 140.045232 0 1 0 79.592373 125.8073 137.477736 137.477736 0 0 0-13.771114-60.219449l210.067848-210.067849a137.477736 137.477736 0 0 0 60.21945 13.771115 140.045232 140.045232 0 0 0 0-280.090464zM150.056126 406.337039L99.406434 99.404573l306.932467 50.649692zM498.301936 930.106207a46.681744 46.681744 0 1 1 46.681744-46.681744 46.681744 46.681744 0 0 1-46.681744 46.681744z m396.794825-396.794824a46.681744 46.681744 0 1 1 46.681744-46.681744 46.681744 46.681744 0 0 1-46.681744 46.681744z" fill="#555555" p-id="5841"></path></svg>