<?xml version="1.0" standalone="no"?><!DOCTYPE svg PUBLIC "-//W3C//DTD SVG 1.1//EN" "http://www.w3.org/Graphics/SVG/1.1/DTD/svg11.dtd"><svg t="1732176124177" class="icon" viewBox="0 0 1024 1024" version="1.1" xmlns="http://www.w3.org/2000/svg" p-id="2378" xmlns:xlink="http://www.w3.org/1999/xlink" width="256" height="256"><path d="M513.1 63.7c-246.9 0-447.8 200.9-447.8 447.8s200.9 447.8 447.8 447.8 447.8-200.9 447.8-447.8S760 63.7 513.1 63.7z m0 60.5c140.2 0 263.2 74.8 331.2 186.7L622 438.5c-23.6-35-63.6-58.1-108.9-58.1-44.6 0-84 22.4-107.7 56.4L201.3 282.1c70.6-95.7 184-157.9 311.8-157.9z m0 457.8c-38.9 0-70.6-31.7-70.6-70.6s31.7-70.6 70.6-70.6 70.6 31.7 70.6 70.6S552 582 513.1 582z m-387.3-70.5c0-64 15.7-124.5 43.4-177.7l213.8 162c-0.6 5.2-1 10.4-1 15.7 0 61.9 43.1 113.8 100.8 127.5v258.5c-199.4-15.5-357-182.7-357-386z m417.6 386V639c57.7-13.7 100.8-65.7 100.8-127.5 0-5.2-0.3-10.3-0.9-15.4L871.6 365c18.6 45.2 28.9 94.7 28.9 146.5-0.1 203.3-157.7 370.5-357.1 386z" fill="#555555" p-id="2379"></path></svg>