<?xml version="1.0" standalone="no"?><!DOCTYPE svg PUBLIC "-//W3C//DTD SVG 1.1//EN"
        "http://www.w3.org/Graphics/SVG/1.1/DTD/svg11.dtd">
<svg t="1734937952793" class="icon" viewBox="0 0 1024 1024" version="1.1" xmlns="http://www.w3.org/2000/svg" p-id="2355"
     xmlns:xlink="http://www.w3.org/1999/xlink" width="32" height="32">
    <path d="M501.611907 962.139094c-254.419504 0-460.659705-206.241224-460.659705-460.659705 0-254.416434 206.240201-460.659705 460.659705-460.659705 254.417457 0 460.659705 206.243271 460.659705 460.659705C962.271612 755.897869 756.030387 962.139094 501.611907 962.139094L501.611907 962.139094zM715.470623 285.902542l-0.005117 0c-21.556968-21.557992-56.515155-21.557992-78.073146 0L500.564042 422.727791 365.469204 287.63193c-21.476127-21.478174-56.298214-21.478174-77.774341 0l-0.00614 0c-21.471011 21.482267-21.471011 56.30333 0 77.780481l135.091768 135.092791L286.030967 637.264958c-21.568225 21.556968-21.568225 56.504922 0 78.063937l0.00614 0c21.550829 21.566178 56.509015 21.566178 78.072123 0l136.749524-136.741337 136.819109 136.825248c21.48329 21.458731 56.304354 21.458731 77.777411 0l0-0.019443c21.478174-21.479197 21.478174-56.278771 0-77.762061L578.636165 500.807077l136.834458-136.835482C737.033731 342.40951 737.033731 307.461557 715.470623 285.902542L715.470623 285.902542zM715.470623 285.902542"
          p-id="2356" fill="#C23E45"></path>
</svg>