<?xml version="1.0" standalone="no"?><!DOCTYPE svg PUBLIC "-//W3C//DTD SVG 1.1//EN" "http://www.w3.org/Graphics/SVG/1.1/DTD/svg11.dtd"><svg t="1733732863611" class="icon" viewBox="0 0 1024 1024" version="1.1" xmlns="http://www.w3.org/2000/svg" p-id="8729" xmlns:xlink="http://www.w3.org/1999/xlink" width="256" height="256"><path d="M549.024 741.024c-12.288 0-24.576-4.672-33.952-14.048-18.752-18.752-18.752-49.152 0-67.872 81.088-81.088 81.088-213.056 0-294.144-18.752-18.752-18.752-49.152 0-67.872 18.752-18.752 49.152-18.752 67.872 0 118.528 118.528 118.528 311.392 0 429.92C573.6 736.32 561.312 741.024 549.024 741.024zM401.344 78.656C427.008 52.992 448 61.696 448 98.016L448 926.016C448 962.304 427.008 971.008 401.344 945.344L160 704 0 704 0 320 160 320 401.344 78.656Z" fill="#555555" p-id="8730"></path></svg>